<svg width="1702" height="630" viewBox="0 0 1702 630" fill="none" xmlns="http://www.w3.org/2000/svg">
  <!-- Background -->
  <rect width="1702" height="630" fill="#111111"/>
  <!-- Circles -->
  <circle cx="1550" cy="120" r="380" fill="#e11d48" fill-opacity="0.06"/>
  <circle cx="200" cy="520" r="280" fill="#22c55e" fill-opacity="0.04"/>
  <!-- Left red accent -->
  <rect x="0" y="0" width="8" height="630" fill="#e11d48"/>

  <!-- ECG background decoration -->
  <polyline points="600,315 740,315 800,255 860,375 910,235 950,330 985,295 1015,315 1080,220 1145,410 1195,315 1380,315 1702,315" fill="none" stroke="#e11d48" stroke-width="3" stroke-linecap="round" stroke-linejoin="round" opacity="0.08"/>

  <!-- LOGO ICON -->
  <defs>
    <linearGradient id="agf" x1="70" y1="150" x2="290" y2="520" gradientUnits="userSpaceOnUse">
      <stop offset="0%" stop-color="#ff4d6d"/>
      <stop offset="55%" stop-color="#e11d48"/>
      <stop offset="100%" stop-color="#9f1239"/>
    </linearGradient>
    <clipPath id="acf">
      <path d="M180 185c-38 0-82-17-110-44-20 25-38 60-38 108 0 120 56 236 98 276 17 18 37 28 50 28s33-10 50-28c42-40 98-156 98-276 0-48-18-83-38-108-28 27-72 44-110 44z"/>
    </clipPath>
  </defs>
  <path d="M180 160c0 0 24-42 66-54 0 0-20 38-66 54z" fill="#4ade80" opacity="0.9"/>
  <path d="M180 156c0 0 32-34 72-44 0 0-10 42-72 44z" fill="#22c55e"/>
  <path d="M180 185c-38 0-82-17-110-44-20 25-38 60-38 108 0 120 56 236 98 276 17 18 37 28 50 28s33-10 50-28c42-40 98-156 98-276 0-48-18-83-38-108-28 27-72 44-110 44z" fill="url(#agf)"/>
  <path d="M96 210c7-18 24-34 54-40-14 8-36 22-42 50-10-7-13-17-12-10z" fill="white" opacity="0.15"/>
  <g clip-path="url(#acf)">
    <polyline points="32,380 68,380 92,344 116,416 136,316 152,368 164,348 175,380 202,296 229,464 250,380 268,380 328,380" fill="none" stroke="white" stroke-width="15" stroke-linecap="round" stroke-linejoin="round" opacity="0.95"/>
  </g>

  <!-- Vertical divider -->
  <rect x="370" y="200" width="2" height="230" fill="#1f2937"/>

  <!-- Brand text -->
  <text x="420" y="290" font-family="'Inter','Helvetica Neue',Arial,sans-serif" font-size="88" font-weight="800" fill="#ffffff" letter-spacing="-2">Eu Te <tspan fill="#e11d48">Indico</tspan></text>
  <text x="424" y="342" font-family="'Inter','Helvetica Neue',Arial,sans-serif" font-size="22" font-weight="500" fill="#6b7280" letter-spacing="5">NUTRIÇÃO E SAÚDE</text>

  <!-- Right side tagline -->
  <text x="420" y="410" font-family="'Inter','Helvetica Neue',Arial,sans-serif" font-size="30" font-weight="400" fill="#4b5563">Produtos selecionados com qualidade</text>
  <text x="420" y="450" font-family="'Inter','Helvetica Neue',Arial,sans-serif" font-size="30" font-weight="400" fill="#4b5563">e os melhores preços do mercado</text>

  <!-- Hashtags -->
  <text x="420" y="510" font-family="'Inter','Helvetica Neue',Arial,sans-serif" font-size="22" fill="#374151" letter-spacing="1">#saude  ·  #nutricao  ·  #bemestar  ·  @euteindico</text>
</svg>
